<svg width="336" height="179" viewBox="0 0 336 179" fill="none" xmlns="http://www.w3.org/2000/svg">
<g clip-path="url(#clip0)">
<path d="M192.661 175.172C190.581 175.171 188.587 174.281 187.117 172.698C185.647 171.115 184.822 168.969 184.822 166.732C184.822 164.495 185.647 162.349 187.117 160.766C188.587 159.183 190.581 158.294 192.661 158.292H309.182C308.596 157.135 307.731 156.168 306.678 155.495C305.625 154.821 304.423 154.465 303.198 154.464H71.5836C68.5618 154.468 65.665 155.762 63.5296 158.062C61.3942 160.363 60.1949 163.481 60.1953 166.732C60.1968 169.983 61.3967 173.1 63.5317 175.4C65.6667 177.699 68.5624 178.994 71.5836 179H303.198C304.423 178.999 305.625 178.643 306.678 177.969C307.731 177.296 308.596 176.33 309.182 175.172L192.661 175.172Z" fill="#CCCCCC"/>
<path d="M309.337 162.943H198.552C198.383 162.942 198.22 162.869 198.1 162.74C197.981 162.611 197.913 162.436 197.913 162.254C197.913 162.071 197.981 161.896 198.1 161.767C198.22 161.638 198.383 161.565 198.552 161.565H309.337C309.507 161.565 309.669 161.638 309.789 161.767C309.909 161.896 309.976 162.071 309.976 162.254C309.976 162.436 309.909 162.611 309.789 162.74C309.669 162.869 309.507 162.942 309.337 162.943Z" fill="#CCCCCC"/>
<path d="M309.337 167.421H198.552C198.382 167.421 198.22 167.348 198.099 167.219C197.979 167.09 197.912 166.915 197.912 166.732C197.912 166.549 197.979 166.374 198.099 166.245C198.22 166.116 198.382 166.043 198.552 166.043H309.337C309.507 166.043 309.67 166.116 309.79 166.245C309.91 166.374 309.978 166.549 309.978 166.732C309.978 166.915 309.91 167.09 309.79 167.219C309.67 167.348 309.507 167.421 309.337 167.421Z" fill="#CCCCCC"/>
<path d="M309.337 171.899H198.552C198.383 171.899 198.22 171.826 198.1 171.697C197.981 171.568 197.913 171.393 197.913 171.21C197.913 171.028 197.981 170.853 198.1 170.724C198.22 170.595 198.383 170.522 198.552 170.521H309.337C309.507 170.522 309.669 170.595 309.789 170.724C309.909 170.853 309.976 171.028 309.976 171.21C309.976 171.393 309.909 171.568 309.789 171.697C309.669 171.826 309.507 171.899 309.337 171.899Z" fill="#CCCCCC"/>
<path d="M162.563 151.402C160.483 151.401 158.49 150.511 157.02 148.928C155.55 147.346 154.724 145.2 154.724 142.962C154.724 140.725 155.55 138.579 157.02 136.996C158.49 135.414 160.483 134.524 162.563 134.522H279.085C278.499 133.365 277.634 132.398 276.581 131.725C275.527 131.051 274.325 130.695 273.1 130.694H41.486C38.4642 130.698 35.5674 131.992 33.432 134.292C31.2966 136.593 30.0972 139.711 30.0975 142.962C30.0991 146.213 31.299 149.33 33.434 151.63C35.569 153.93 38.4648 155.224 41.486 155.23H273.1C274.325 155.229 275.527 154.873 276.581 154.2C277.634 153.526 278.499 152.56 279.085 151.402L162.563 151.402Z" fill="#544C9E"/>
<path d="M279.239 139.173H168.455C168.285 139.172 168.122 139.1 168.003 138.97C167.883 138.841 167.816 138.666 167.816 138.484C167.816 138.301 167.883 138.126 168.003 137.997C168.122 137.868 168.285 137.795 168.455 137.795H279.239C279.409 137.795 279.572 137.867 279.692 137.997C279.812 138.126 279.88 138.301 279.88 138.484C279.88 138.667 279.812 138.842 279.692 138.971C279.572 139.1 279.409 139.173 279.239 139.173Z" fill="#CCCCCC"/>
<path d="M279.239 143.651H168.454C168.285 143.651 168.122 143.579 168.002 143.449C167.882 143.32 167.814 143.145 167.814 142.962C167.814 142.779 167.882 142.604 168.002 142.475C168.122 142.346 168.285 142.273 168.454 142.273H279.239C279.409 142.273 279.572 142.346 279.692 142.475C279.812 142.604 279.88 142.779 279.88 142.962C279.88 143.145 279.812 143.32 279.692 143.449C279.572 143.579 279.409 143.651 279.239 143.651Z" fill="#CCCCCC"/>
<path d="M279.239 148.13H168.455C168.285 148.129 168.122 148.056 168.003 147.927C167.883 147.798 167.816 147.623 167.816 147.441C167.816 147.258 167.883 147.083 168.003 146.954C168.122 146.825 168.285 146.752 168.455 146.752H279.239C279.324 146.751 279.407 146.769 279.485 146.804C279.563 146.838 279.634 146.889 279.693 146.953C279.753 147.017 279.8 147.093 279.832 147.177C279.865 147.26 279.881 147.35 279.881 147.441C279.881 147.531 279.865 147.621 279.832 147.705C279.8 147.788 279.753 147.864 279.693 147.928C279.634 147.992 279.563 148.043 279.485 148.078C279.407 148.112 279.324 148.13 279.239 148.13Z" fill="#CCCCCC"/>
<path d="M132.465 126.839C130.386 126.838 128.392 125.948 126.922 124.365C125.452 122.783 124.626 120.637 124.626 118.399C124.626 116.162 125.452 114.016 126.922 112.433C128.392 110.851 130.386 109.961 132.465 109.959H248.987C248.401 108.802 247.536 107.835 246.483 107.162C245.43 106.488 244.228 106.132 243.002 106.131H11.3882C8.36648 106.135 5.46965 107.429 3.33427 109.729C1.19888 112.03 -0.000375968 115.148 8.84143e-08 118.399C0.0015289 121.65 1.2014 124.767 3.33637 127.067C5.47134 129.367 8.36706 130.661 11.3882 130.667H243.002C244.228 130.666 245.43 130.31 246.483 129.637C247.536 128.963 248.401 127.997 248.987 126.839L132.465 126.839Z" fill="#CCCCCC"/>
<path d="M249.142 114.61H138.357C138.187 114.609 138.025 114.537 137.905 114.408C137.785 114.278 137.718 114.103 137.718 113.921C137.718 113.738 137.785 113.563 137.905 113.434C138.025 113.305 138.187 113.232 138.357 113.232H249.142C249.312 113.232 249.475 113.304 249.595 113.434C249.715 113.563 249.782 113.738 249.782 113.921C249.782 114.104 249.715 114.279 249.595 114.408C249.475 114.537 249.312 114.61 249.142 114.61Z" fill="#CCCCCC"/>
<path d="M249.142 119.088H138.357C138.273 119.088 138.19 119.07 138.112 119.036C138.034 119.001 137.964 118.95 137.904 118.886C137.845 118.822 137.797 118.747 137.765 118.663C137.733 118.579 137.717 118.49 137.717 118.399C137.717 118.309 137.733 118.219 137.765 118.136C137.797 118.052 137.845 117.976 137.904 117.912C137.964 117.848 138.034 117.797 138.112 117.763C138.19 117.728 138.273 117.71 138.357 117.71H249.142C249.226 117.71 249.309 117.728 249.387 117.763C249.465 117.797 249.535 117.848 249.595 117.912C249.654 117.976 249.701 118.052 249.734 118.136C249.766 118.219 249.782 118.309 249.782 118.399C249.782 118.49 249.766 118.579 249.734 118.663C249.701 118.747 249.654 118.822 249.595 118.886C249.535 118.95 249.465 119.001 249.387 119.036C249.309 119.07 249.226 119.088 249.142 119.088Z" fill="#CCCCCC"/>
<path d="M249.142 123.567H138.357C138.187 123.567 138.024 123.494 137.904 123.365C137.784 123.236 137.717 123.06 137.717 122.878C137.717 122.695 137.784 122.52 137.904 122.39C138.024 122.261 138.187 122.189 138.357 122.189H249.142C249.226 122.189 249.309 122.206 249.387 122.241C249.465 122.276 249.535 122.326 249.595 122.39C249.654 122.454 249.701 122.53 249.734 122.614C249.766 122.698 249.782 122.787 249.782 122.878C249.782 122.968 249.766 123.058 249.734 123.141C249.701 123.225 249.654 123.301 249.595 123.365C249.535 123.429 249.465 123.48 249.387 123.514C249.309 123.549 249.226 123.567 249.142 123.567Z" fill="#CCCCCC"/>
<path d="M251.7 74.4394C251.092 74.4384 250.508 74.189 250.065 73.7417C249.621 73.2944 249.353 72.6826 249.313 72.0302L248.958 66.1897C248.916 65.5076 249.128 64.8356 249.547 64.3216C249.966 63.8076 250.558 63.4938 251.192 63.4491L293.721 60.4524C294.392 60.4052 295.064 60.5005 295.7 60.7329C296.337 60.9653 296.924 61.3302 297.429 61.8068C297.934 62.2834 298.347 62.8624 298.644 63.5107C298.941 64.159 299.117 64.8639 299.161 65.5852C299.205 66.3065 299.116 67.03 298.9 67.7145C298.684 68.3989 298.345 69.0309 297.902 69.5743C297.459 70.1177 296.921 70.562 296.318 70.8816C295.716 71.2013 295.06 71.3901 294.39 71.4373L251.86 74.4338C251.807 74.4375 251.753 74.4393 251.7 74.4394Z" fill="#D45320"/>
<path d="M260.086 75.1925C259.467 75.1913 258.872 74.9324 258.426 74.4698C257.98 74.0072 257.717 73.3769 257.693 72.7109L257.39 63.9874C257.378 63.6491 257.429 63.3117 257.538 62.9943C257.648 62.677 257.814 62.3859 258.028 62.1378C258.242 61.8897 258.5 61.6894 258.786 61.5483C259.072 61.4072 259.381 61.3281 259.695 61.3155L294.668 59.9091C295.303 59.8836 295.922 60.1305 296.387 60.5956C296.853 61.0606 297.128 61.7056 297.152 62.3888L297.455 71.1122C297.467 71.4505 297.416 71.7879 297.307 72.1053C297.197 72.4226 297.031 72.7137 296.817 72.9618C296.603 73.2099 296.346 73.4102 296.06 73.5513C295.774 73.6924 295.465 73.7716 295.15 73.7842L260.177 75.1905C260.147 75.1919 260.116 75.1925 260.086 75.1925Z" fill="#2F2E41"/>
<path d="M301.069 155.607H295.629C294.994 155.606 294.385 155.334 293.936 154.851C293.487 154.368 293.234 153.713 293.234 153.029V104.247C293.234 103.563 293.487 102.908 293.936 102.425C294.385 101.942 294.994 101.67 295.629 101.669H301.069C301.705 101.67 302.314 101.942 302.763 102.425C303.212 102.908 303.465 103.563 303.465 104.247V153.029C303.465 153.713 303.212 154.368 302.763 154.851C302.314 155.334 301.705 155.606 301.069 155.607Z" fill="#2F2E41"/>
<path d="M276.923 129.821L272.271 126.787C271.728 126.432 271.338 125.86 271.187 125.196C271.035 124.533 271.135 123.831 271.464 123.247L294.966 81.5295C295.296 80.9455 295.828 80.5261 296.444 80.3633C297.061 80.2006 297.713 80.3077 298.257 80.6613L302.909 83.6952C303.452 84.0501 303.841 84.6222 303.993 85.2859C304.144 85.9496 304.044 86.6508 303.716 87.2356L280.213 128.953C279.884 129.537 279.352 129.956 278.735 130.119C278.118 130.282 277.466 130.174 276.923 129.821Z" fill="#2F2E41"/>
<path d="M292.807 50.7597C303.189 50.7597 311.605 41.7049 311.605 30.5352C311.605 19.3656 303.189 10.3108 292.807 10.3108C282.425 10.3108 274.009 19.3656 274.009 30.5352C274.009 41.7049 282.425 50.7597 292.807 50.7597Z" fill="#544C9E"/>
<path d="M282.632 37.4406C282.027 37.2268 281.472 36.8762 281.004 36.4124C280.694 36.0812 280.454 35.6811 280.303 35.24C280.152 34.7989 280.092 34.3276 280.128 33.859C280.147 33.5251 280.238 33.2006 280.394 32.9109C280.55 32.6212 280.765 32.3742 281.024 32.189C281.696 31.7251 282.595 31.7237 283.511 32.1577L283.476 24.2624L284.213 24.2586L284.254 33.5404L283.686 33.156C283.028 32.711 282.087 32.3978 281.422 32.8566C281.258 32.9779 281.122 33.1382 281.025 33.3252C280.927 33.5122 280.872 33.7208 280.861 33.9349C280.837 34.2839 280.882 34.6347 280.994 34.9632C281.107 35.2917 281.284 35.5903 281.513 35.8387C282.327 36.6753 283.515 36.9369 284.869 37.1706L284.752 37.9537C284.032 37.8511 283.323 37.6794 282.632 37.4406Z" fill="#2F2E41"/>
<path d="M275.877 23.8635L275.781 24.6497L279.717 25.209L279.813 24.4228L275.877 23.8635Z" fill="#2F2E41"/>
<path d="M288.301 25.6284L288.205 26.4146L292.141 26.9738L292.237 26.1876L288.301 25.6284Z" fill="#2F2E41"/>
<path d="M308.503 117.335H276.805C275.974 117.334 275.178 116.979 274.591 116.347C274.003 115.715 273.673 114.858 273.672 113.965L280.308 59.2139C280.313 58.3244 280.646 57.4732 281.232 56.8464C281.819 56.2196 282.613 55.8681 283.44 55.8688H294.689C299.182 55.8742 303.489 57.797 306.667 61.2153C309.844 64.6336 311.631 69.2683 311.636 74.1025V113.965C311.635 114.858 311.305 115.715 310.717 116.347C310.13 116.979 309.334 117.334 308.503 117.335Z" fill="#2F2E41"/>
<path d="M335.775 95.7613C335.971 96.2122 336.041 96.7143 335.978 97.2072C335.915 97.7002 335.72 98.163 335.418 98.5399L331.862 102.969C331.656 103.225 331.405 103.435 331.124 103.587C330.843 103.739 330.537 103.83 330.223 103.855C329.909 103.879 329.594 103.837 329.295 103.731C328.997 103.624 328.721 103.455 328.483 103.234L296.231 73.2555C295.723 72.7831 295.306 72.2074 295.004 71.5615C294.702 70.9156 294.522 70.2121 294.473 69.4911C294.424 68.7701 294.507 68.0458 294.718 67.3596C294.93 66.6733 295.264 66.0385 295.704 65.4915C296.143 64.9445 296.678 64.4959 297.279 64.1715C297.879 63.847 298.533 63.6529 299.203 63.6004C299.873 63.5478 300.546 63.6378 301.184 63.8652C301.822 64.0927 302.412 64.453 302.92 64.9257L335.172 94.9042C335.427 95.1408 335.632 95.4329 335.775 95.7613Z" fill="#544C9E"/>
<path d="M328.657 86.8681C328.852 87.3189 328.923 87.8211 328.86 88.314C328.796 88.807 328.602 89.2698 328.3 89.6466L322.225 97.2117C321.809 97.7282 321.22 98.0463 320.587 98.096C319.953 98.1457 319.327 97.9231 318.846 97.4769L292.363 72.8601C292.125 72.6388 291.93 72.3693 291.788 72.0668C291.647 71.7643 291.563 71.4349 291.54 71.0973C291.517 70.7597 291.556 70.4205 291.655 70.0992C291.754 69.7778 291.911 69.4806 292.116 69.2245L298.191 61.6595C298.397 61.4034 298.647 61.1933 298.928 61.0414C299.21 60.8894 299.516 60.7985 299.83 60.7739C300.143 60.7493 300.459 60.7914 300.757 60.8978C301.056 61.0043 301.332 61.173 301.57 61.3943L328.053 86.011C328.308 86.2477 328.514 86.5398 328.657 86.8681Z" fill="#2F2E41"/>
<path d="M293.159 18.5401C290.646 16.3028 287.287 18.4189 284.445 18.1185C281.726 17.8312 279.538 15.257 278.942 12.4869C278.246 9.25511 279.754 5.97225 282.026 3.90197C284.513 1.63452 287.854 0.929907 291.037 1.27494C294.685 1.67039 298.047 3.42788 301.073 5.57493C303.992 7.58134 306.687 9.94448 309.101 12.6172C311.265 15.0923 313.114 18.0574 313.747 21.4344C314.323 24.5035 313.985 27.9244 312.339 30.5679C311.465 31.9235 310.282 33.0139 308.902 33.734C307.465 34.5302 305.927 35.1099 304.536 36.0054C302.434 37.3593 300.416 40.1188 301.132 42.933C301.285 43.5479 301.577 44.1126 301.981 44.5776C302.467 45.1359 303.312 44.3677 302.825 43.8079C301.97 42.8247 301.979 41.4899 302.404 40.2864C302.911 38.9297 303.832 37.7985 305.014 37.0781C306.47 36.1429 308.084 35.551 309.578 34.6957C311.008 33.913 312.242 32.7701 313.173 31.3643C314.93 28.6286 315.408 25.1051 314.942 21.8642C314.437 18.357 312.701 15.1962 310.549 12.5616C308.206 9.69452 305.349 7.28543 302.435 5.12832C299.309 2.81369 295.866 0.873193 292.082 0.223235C288.802 -0.340179 285.266 0.120258 282.441 2.09524C279.804 3.93876 277.813 7.05799 277.67 10.5008C277.625 12.0669 277.968 13.6178 278.664 14.9937C279.361 16.3697 280.386 17.5211 281.633 18.3294C282.913 19.118 284.39 19.4546 285.857 19.2915C287.425 19.1513 288.988 18.6017 290.571 18.7131C291.287 18.7452 291.974 19.0275 292.527 19.5173C293.076 20.0061 293.703 19.025 293.159 18.5401V18.5401Z" fill="#2F2E41"/>
<path d="M271.055 123.951C271.062 123.907 271.07 123.862 271.079 123.817C271.144 123.486 271.27 123.172 271.449 122.894C271.628 122.615 271.857 122.378 272.122 122.195L276.694 119.022C277.228 118.653 277.876 118.526 278.497 118.67C279.118 118.814 279.661 119.218 280.006 119.791L294.108 143.315C294.452 143.89 294.57 144.588 294.436 145.256C294.302 145.924 293.927 146.508 293.393 146.878L288.821 150.051C288.287 150.421 287.639 150.547 287.018 150.403C286.397 150.259 285.854 149.856 285.51 149.282L271.407 125.758C271.085 125.224 270.959 124.58 271.055 123.951Z" fill="#2F2E41"/>
</g>
<defs>
<clipPath id="clip0">
<rect width="336" height="179" fill="white"/>
</clipPath>
</defs>
</svg>
