<svg width="134" height="177" viewBox="0 0 134 177" fill="none" xmlns="http://www.w3.org/2000/svg">
<path d="M112.529 4.31604H0V170.498H112.529V4.31604Z" fill="#535461"/>
<path d="M81.8623 174.798L0 170.498V4.31602L81.8623 0.0160217V174.798Z" fill="#544C9E"/>
<path d="M75.0193 96.3866C75.5792 96.3866 76.0331 95.9336 76.0331 95.3748C76.0331 94.816 75.5792 94.363 75.0193 94.363C74.4594 94.363 74.0055 94.816 74.0055 95.3748C74.0055 95.9336 74.4594 96.3866 75.0193 96.3866Z" fill="#535461"/>
<path d="M75.0193 95.5257L75.7221 96.7406L76.4247 97.9552H75.0193H73.614L74.3165 96.7406L75.0193 95.5257Z" fill="#535461"/>
<path d="M85.4105 174.798L80.3966 174.782L80.5951 0.0159302H85.4105V174.798Z" fill="#544C9E"/>
<g opacity="0.1">
<path opacity="0.1" d="M85.4655 174.782H80.3966L80.6501 0H85.4655V174.782Z" fill="white"/>
</g>
<path opacity="0.1" d="M75.0193 91.3277C76.839 91.3277 78.3141 89.8556 78.3141 88.0395C78.3141 86.2235 76.839 84.7513 75.0193 84.7513C73.1997 84.7513 71.7245 86.2235 71.7245 88.0395C71.7245 89.8556 73.1997 91.3277 75.0193 91.3277Z" fill="black"/>
<path d="M75.0193 90.8219C76.839 90.8219 78.3141 89.3497 78.3141 87.5336C78.3141 85.7176 76.839 84.2454 75.0193 84.2454C73.1997 84.2454 71.7245 85.7176 71.7245 87.5336C71.7245 89.3497 73.1997 90.8219 75.0193 90.8219Z" fill="#535461"/>
<path opacity="0.1" d="M13.3867 4.07437V171.281" stroke="black" stroke-width="2" stroke-miterlimit="10"/>
<path opacity="0.1" d="M27.833 3.06261V171.786" stroke="black" stroke-width="2" stroke-miterlimit="10"/>
<path opacity="0.1" d="M42.2793 2.30377V172.759" stroke="black" stroke-width="2" stroke-miterlimit="10"/>
<path opacity="0.1" d="M56.7256 1.54497V173.81" stroke="black" stroke-width="2" stroke-miterlimit="10"/>
<path opacity="0.1" d="M71.1719 0.786133V174.023" stroke="black" stroke-width="2" stroke-miterlimit="10"/>
<path d="M117.399 33.47C122.928 33.47 127.41 29.2799 127.41 24.1112C127.41 18.9425 122.928 14.7524 117.399 14.7524C111.871 14.7524 107.388 18.9425 107.388 24.1112C107.388 29.2799 111.871 33.47 117.399 33.47Z" fill="#2F2E41"/>
<path d="M88.2534 82.4141L85.719 85.9553C85.719 85.9553 73.5537 88.4847 78.1157 92.2788C82.6777 96.0729 89.2672 88.7377 89.2672 88.7377L92.8154 84.1847L88.2534 82.4141Z" fill="#FFB8B8"/>
<path d="M101.433 42.1965C101.433 42.1965 98.1377 42.1965 97.3774 46.7494C96.6171 51.3024 95.8567 66.4788 95.8567 66.4788C95.8567 66.4788 85.2121 80.3906 86.9862 82.1612C88.7603 83.9317 90.7879 87.22 92.0551 86.7141C93.3223 86.2082 104.22 71.2847 104.22 71.2847L101.433 42.1965Z" fill="#544C9E"/>
<path opacity="0.1" d="M101.433 42.1965C101.433 42.1965 98.1377 42.1965 97.3774 46.7494C96.6171 51.3024 95.8567 66.4788 95.8567 66.4788C95.8567 66.4788 85.2121 80.3906 86.9862 82.1612C88.7603 83.9317 90.7879 87.22 92.0551 86.7141C93.3223 86.2082 104.22 71.2847 104.22 71.2847L101.433 42.1965Z" fill="black"/>
<path d="M111.57 29.2965C111.57 29.2965 111.317 39.1612 108.275 39.6671C105.234 40.173 106.248 43.4612 106.248 43.4612C106.248 43.4612 116.132 49.2788 122.722 43.4612L123.989 40.4259C123.989 40.4259 119.427 37.1377 121.455 32.5847L111.57 29.2965Z" fill="#FFB8B8"/>
<path d="M94.5895 90.0023C94.5895 90.0023 79.6364 117.826 85.2121 126.426C90.7879 135.026 99.1515 152.732 100.419 152.732C101.686 152.732 108.782 149.191 108.275 146.914C107.769 144.638 100.165 127.691 98.1377 126.173C96.1102 124.655 97.124 120.608 97.3774 120.355C97.6308 120.102 105.994 106.696 105.994 106.696C105.994 106.696 105.741 127.943 106.755 131.232C107.769 134.52 106.501 158.043 107.769 159.055C109.036 160.067 114.865 161.838 115.879 160.32C116.893 158.802 119.934 135.785 117.906 130.473L121.708 94.0494L94.5895 90.0023Z" fill="#2F2E41"/>
<path d="M108.275 157.538L101.939 169.173C101.939 169.173 92.8154 175.749 99.1515 176.761C105.488 177.773 109.289 175.243 109.289 175.243L114.865 171.196V159.561L108.275 157.538Z" fill="#2F2E41"/>
<path d="M99.6584 150.961L102.953 158.802C102.953 158.802 104.22 162.091 102.953 162.849C101.686 163.608 98.1377 168.161 100.419 168.667C100.878 168.757 101.344 168.803 101.811 168.805C103.711 168.837 105.597 168.485 107.357 167.771C109.116 167.056 110.713 165.993 112.05 164.647L114.105 162.596C114.105 162.596 107.067 146.421 107.164 146.541C107.262 146.661 99.6584 150.961 99.6584 150.961Z" fill="#2F2E41"/>
<path d="M117.906 35.3671C122.665 35.3671 126.523 31.5167 126.523 26.7671C126.523 22.0174 122.665 18.1671 117.906 18.1671C113.147 18.1671 109.289 22.0174 109.289 26.7671C109.289 31.5167 113.147 35.3671 117.906 35.3671Z" fill="#FFB8B8"/>
<path d="M122.848 38.7818L120.187 41.4377C120.187 41.4377 112.077 44.473 108.275 41.4377C108.275 41.4377 109.669 38.5288 109.669 38.7818C109.669 39.0347 98.6446 40.6788 97.6308 45.2318C96.6171 49.7847 98.3912 57.6259 98.3912 57.6259C98.3912 57.6259 91.2947 91.0141 94.0826 91.7729C96.8705 92.5317 122.975 98.8553 122.722 94.0494C122.468 89.2435 124.749 69.5141 124.749 69.5141L133.62 52.5671C133.62 52.5671 132.353 47.0024 129.311 45.2318C126.27 43.4612 122.848 38.7818 122.848 38.7818Z" fill="#544C9E"/>
<path d="M111.57 88.2318L108.275 90.2553C108.275 90.2553 95.6033 98.8553 102.193 100.373C108.782 101.891 112.584 94.3023 112.584 94.3023L115.118 91.267L111.57 88.2318Z" fill="#FFB8B8"/>
<path opacity="0.1" d="M130.325 51.0494L132.606 53.3259C132.606 53.3259 134.127 74.5729 131.085 78.8729C128.044 83.1729 114.105 94.8082 113.344 94.0494C112.584 93.2906 107.769 89.4965 108.782 88.9906C109.796 88.4847 123.275 74.4289 123.275 74.4289L122.215 54.8435L130.325 51.0494Z" fill="black"/>
<path d="M131.339 50.2906L133.62 52.5671C133.62 52.5671 135.14 73.8141 132.099 78.1141C129.058 82.4141 115.118 94.0494 114.358 93.2906C113.598 92.5317 108.782 88.7376 109.796 88.2317C110.81 87.7259 124.289 73.6701 124.289 73.6701L123.229 54.0847L131.339 50.2906Z" fill="#544C9E"/>
<path d="M114.343 15.5513C114.343 15.5513 111.413 14.4883 107.419 16.7473L109.549 17.2788C109.549 17.2788 106.354 17.5445 105.954 21.7967H107.419C107.419 21.7967 106.487 25.5174 107.419 26.5804L108.018 25.4509L109.749 28.9058L110.148 27.1784L110.947 27.4441L111.48 24.6536C111.48 24.6536 112.811 26.6468 113.876 26.7797V25.0523C113.876 25.0523 116.806 28.3743 117.738 28.2414L116.406 26.3811L118.27 26.7797L117.471 25.4509L122.265 26.7797L121.199 25.4509L124.528 26.514L126.126 27.1784C126.126 27.1784 128.389 21.996 125.194 18.4083C121.998 14.8205 117.338 14.0232 114.343 15.5513Z" fill="#2F2E41"/>
</svg>
